HIERARCHY
ROOT Hips
{
	OFFSET 0.000000 0.000000 0.000000
	CHANNELS 6 Xposition Yposition Zposition Zrotation Yrotation Xrotation 
	JOINT LeftUpLeg_virtual
	{
		OFFSET 0.000000 0.000000 0.000000
		CHANNELS 3 Zrotation Yrotation Xrotation
		JOINT LeftUpLeg
		{
			OFFSET 8.479694 -4.795517 -0.379053
			CHANNELS 3 Zrotation Yrotation Xrotation
			JOINT LeftLeg
			{
				OFFSET 0.485052 -32.551468 0.112863
				CHANNELS 3 Zrotation Yrotation Xrotation
				JOINT LeftFoot
				{
					OFFSET 0.438033 -32.635670 -3.012641
					CHANNELS 3 Zrotation Yrotation Xrotation
					JOINT LeftToeBase
					{
						OFFSET 0.970169 -13.225353 11.864223
						CHANNELS 3 Zrotation Yrotation Xrotation
						End Site
						{
							OFFSET 0.000000 0.000000 0.000000
						}
					}
				}
			}
		}
	}
	JOINT RightUpLeg_virtual
	{
		OFFSET 0.000000 0.000000 0.000000
		CHANNELS 3 Zrotation Yrotation Xrotation
		JOINT RightUpLeg
		{
			OFFSET -8.479694 -4.795517 -0.379053
			CHANNELS 3 Zrotation Yrotation Xrotation
			JOINT RightLeg
			{
				OFFSET -0.484100 -32.551483 0.112903
				CHANNELS 3 Zrotation Yrotation Xrotation
				JOINT RightFoot
				{
					OFFSET -0.438985 -32.635651 -3.012681
					CHANNELS 3 Zrotation Yrotation Xrotation
					JOINT RightToeBase
					{
						OFFSET -0.970169 -13.225354 11.864223
						CHANNELS 3 Zrotation Yrotation Xrotation
						End Site
						{
							OFFSET 0.000000 0.000000 0.000000
						}
					}
				}
			}
		}
	}
	JOINT Spine_virtual
	{
		OFFSET 0.000000 0.000000 0.000000
		CHANNELS 3 Zrotation Yrotation Xrotation
		JOINT Spine
		{
			OFFSET 0.000000 7.722015 1.166203
			CHANNELS 3 Zrotation Yrotation Xrotation
			JOINT Spine1
			{
				OFFSET 0.000000 12.024086 0.248766
				CHANNELS 3 Zrotation Yrotation Xrotation
				JOINT Spine2
				{
					OFFSET -0.000000 11.503036 -0.491240
					CHANNELS 3 Zrotation Yrotation Xrotation
					JOINT Neck_virtual
					{
						OFFSET 0.000000 0.000000 0.000000
						CHANNELS 3 Zrotation Yrotation Xrotation
						JOINT Neck
						{
							OFFSET 0.000000 18.430687 -3.123054
							CHANNELS 3 Zrotation Yrotation Xrotation
							JOINT Head
							{
								OFFSET -0.000000 9.051071 1.034021
								CHANNELS 3 Zrotation Yrotation Xrotation
								End Site
								{
									OFFSET 0.000000 0.000000 0.000000
								}
							}
						}
					}
					JOINT LeftShoulder_virtual
					{
						OFFSET 0.000000 0.000000 0.000000
						CHANNELS 3 Zrotation Yrotation Xrotation
						JOINT LeftShoulder
						{
							OFFSET 6.197824 13.665230 -4.064723
							CHANNELS 3 Zrotation Yrotation Xrotation
							JOINT LeftArm
							{
								OFFSET 7.778132 -0.187073 -1.709282
								CHANNELS 3 Zrotation Yrotation Xrotation
								JOINT LeftForeArm
								{
									OFFSET 21.954697 0.000000 -2.041093
									CHANNELS 3 Zrotation Yrotation Xrotation
									JOINT LeftHand
									{
										OFFSET 22.992908 0.000000 -0.870901
										CHANNELS 3 Zrotation Yrotation Xrotation
										End Site
										{
											OFFSET 0.000000 0.000000 0.000000
										}
									}
								}
							}
						}
					}
					JOINT RightShoulder_virtual
					{
						OFFSET 0.000000 0.000000 0.000000
						CHANNELS 3 Zrotation Yrotation Xrotation
						JOINT RightShoulder
						{
							OFFSET -6.197824 13.665230 -4.064723
							CHANNELS 3 Zrotation Yrotation Xrotation
							JOINT RightArm
							{
								OFFSET -7.778132 -0.187073 -1.709282
								CHANNELS 3 Zrotation Yrotation Xrotation
								JOINT RightForeArm
								{
									OFFSET -21.954697 0.000000 -2.041093
									CHANNELS 3 Zrotation Yrotation Xrotation
									JOINT RightHand
									{
										OFFSET -22.992908 0.000000 -0.870901
										CHANNELS 3 Zrotation Yrotation Xrotation
										End Site
										{
											OFFSET 0.000000 0.000000 0.000000
										}
									}
								}
							}
						}
					}
				}
			}
		}
	}
}
MOTION
Frames: 11
Frame Time: 0.033333
-5.909118 64.007812 10.911530 -179.965075 -2.256975 179.993462 -1.083739 -0.478677 7.446170 3.272357 7.853161 -74.780838 4.143247 4.836236 86.490597 3.537371 -13.185222 -7.731377 0.000000 0.000000 0.000000 1.550864 1.579329 8.644101 7.898282 -10.096688 -75.958138 1.030271 1.115932 82.688285 1.599540 6.225726 -5.308829 0.000000 0.000000 0.000000 0.751372 4.106162 5.364571 1.085588 0.334234 -2.623388 -1.387536 -2.423851 5.324728 -0.009764 0.034484 -0.010215 -1.925977 -1.350896 8.274570 -8.457400 -0.465278 4.465217 0.000000 0.000000 0.000000 0.532880 -0.870657 3.672670 -5.982068 -4.845958 -0.481323 -62.442430 -35.062991 7.763062 128.839074 -79.973592 -105.063534 0.000000 0.000000 0.000000 -4.538892 1.016319 3.076065 28.820000 2.442300 3.099663 44.539578 25.961788 -8.083543 178.139188 65.289505 170.436593 0.000000 0.000000 0.000000 
-5.868314 63.975269 10.928399 -179.966660 -2.308774 -179.866857 -1.095084 -0.498563 7.359765 3.316109 7.977124 -74.950972 4.256346 4.889203 86.588364 3.368099 -13.281961 -7.601908 0.000000 0.000000 0.000000 1.500335 1.647695 8.550704 8.039255 -10.176068 -76.052722 1.005430 1.121575 82.779243 1.507059 6.256984 -5.290459 0.000000 0.000000 0.000000 0.597688 4.105714 5.127221 1.015042 0.366544 -2.789648 -1.404051 -2.439875 5.234087 0.007903 -0.001906 0.016759 -1.990443 -1.332193 8.209824 -8.501912 -0.433218 4.411898 0.000000 0.000000 0.000000 0.496430 -0.773945 3.662242 -6.015503 -4.764772 -0.506930 -62.482366 -34.853786 7.693093 129.611227 -79.944994 -105.813079 0.000000 0.000000 0.000000 -4.591102 1.106691 3.053593 28.905886 2.663463 3.249845 44.926539 25.393738 -7.365192 178.659635 65.051473 170.960591 0.000000 0.000000 0.000000 
-5.769257 63.965313 10.972810 -179.950582 -2.368021 -179.862226 -1.141204 -0.392786 7.322992 3.390812 8.147652 -75.024908 4.228647 4.870625 86.575284 3.211263 -13.411186 -7.389500 0.000000 0.000000 0.000000 1.450249 1.769551 8.558399 8.167616 -10.158831 -76.099352 0.953935 1.083536 82.752516 1.367273 6.256584 -5.249022 0.000000 0.000000 0.000000 0.441400 4.224869 4.997404 0.919480 0.381327 -2.885369 -1.359482 -2.447566 5.172680 0.010739 -0.012669 -0.003735 -1.938589 -1.331259 8.157782 -8.350442 -0.245709 4.471025 0.000000 0.000000 0.000000 0.546202 -0.770572 3.596365 -5.900056 -4.823320 -0.410587 -61.888091 -34.887052 6.805752 131.146694 -79.890161 -107.393974 0.000000 0.000000 0.000000 -4.576896 1.134936 3.035381 28.948995 2.928599 3.049229 45.132452 25.196617 -6.946827 178.461614 64.868813 170.760617 0.000000 0.000000 0.000000 
-5.655046 63.968540 11.025123 -179.948601 -2.437109 -179.872007 -1.224770 -0.358723 7.227931 3.488897 8.291958 -75.024526 4.217644 4.842142 86.525274 3.044149 -13.563642 -7.175386 0.000000 0.000000 0.000000 1.369935 1.854966 8.566397 8.271938 -10.083535 -76.115649 0.890412 1.023478 82.707129 1.226570 6.240141 -5.132026 0.000000 0.000000 0.000000 0.271511 4.332899 4.818687 0.792603 0.383398 -2.945248 -1.285216 -2.437586 5.127508 -0.025626 -0.001848 0.002118 -1.773396 -1.243565 8.094789 -8.022495 -0.243838 4.722344 0.000000 0.000000 0.000000 0.680680 -0.805300 3.564831 -5.664078 -4.996654 -0.428657 -61.082436 -35.178715 5.660099 132.865143 -79.870320 -109.228092 0.000000 0.000000 0.000000 -4.471885 1.100590 2.953027 29.119945 3.069027 3.181818 44.830736 25.617033 -6.819402 178.808287 64.765213 171.093875 0.000000 0.000000 0.000000 
-5.571689 63.967510 11.068475 -179.962248 -2.486779 -179.965526 -1.378716 -0.314637 7.126412 3.542770 8.452339 -74.916124 4.170826 4.770977 86.526127 2.945705 -13.604566 -6.955903 0.000000 0.000000 0.000000 1.227539 1.892420 8.556224 8.260005 -9.876529 -76.026508 0.820167 0.955521 82.663041 1.129722 6.223494 -5.020818 0.000000 0.000000 0.000000 0.078061 4.407798 4.601360 0.666914 0.344649 -2.916934 -1.163752 -2.443098 5.131251 -0.058265 0.005892 0.000010 -1.564100 -1.247017 8.037252 -7.695611 -0.130361 5.045007 0.000000 0.000000 0.000000 0.869520 -0.843647 3.438910 -5.615210 -5.192744 -0.325988 -60.192668 -35.516833 4.472093 133.949586 -79.856188 -110.498677 0.000000 0.000000 0.000000 -4.265376 1.016934 2.909526 29.328235 3.312274 3.215067 44.413394 26.058830 -7.105124 178.549450 64.650377 170.835080 0.000000 0.000000 0.000000 
-5.527505 63.939064 11.069666 -179.969925 -2.643340 -179.932318 -1.487243 -0.334260 6.931213 3.604939 8.551167 -74.868313 4.177013 4.702203 86.637507 2.976920 -13.679534 -6.942565 0.000000 0.000000 0.000000 1.122806 1.885112 8.470098 8.248025 -9.670907 -75.988853 0.769012 0.923242 82.731602 1.069752 6.205708 -4.982036 0.000000 0.000000 0.000000 -0.085944 4.547963 4.240844 0.553427 0.221165 -2.927699 -1.021652 -2.530795 5.156915 0.010004 -0.075233 0.017916 -1.477027 -1.352062 8.032775 -7.302732 0.018600 5.450760 0.000000 0.000000 0.000000 0.903852 -0.778440 3.403863 -5.635162 -5.395090 -0.416728 -59.690669 -35.670021 3.702487 135.094230 -79.960697 -111.855542 0.000000 0.000000 0.000000 -4.226697 1.074465 2.855348 29.589824 3.365359 3.016898 44.119023 26.215294 -7.463506 178.365964 64.500987 170.667795 0.000000 0.000000 0.000000 
-5.504573 63.886024 10.997442 -179.949953 -2.811303 -179.917346 -1.555778 -0.298950 6.794738 3.637652 8.642131 -74.850254 4.200698 4.674420 86.852706 2.999842 -13.839609 -7.020459 0.000000 0.000000 0.000000 1.007000 1.932649 8.406769 8.146583 -9.375884 -75.945782 0.710795 0.926257 82.959088 1.000246 6.140912 -5.087883 0.000000 0.000000 0.000000 -0.244212 4.510450 3.883389 0.439971 0.235582 -2.958385 -0.903256 -2.475210 5.183358 0.009750 -0.008524 0.018942 -1.336218 -1.394621 8.098412 -6.828882 0.125246 5.979388 0.000000 0.000000 0.000000 0.998266 -0.859157 3.386495 -5.763571 -5.683635 -0.496623 -59.479166 -35.412045 3.098281 136.429163 -80.116002 -113.434962 0.000000 0.000000 0.000000 -4.130391 1.026713 2.818586 29.935172 3.265007 2.923363 43.969592 26.025845 -8.014039 178.275369 64.315370 170.598564 0.000000 0.000000 0.000000 
-5.478781 63.821369 10.882673 -179.950090 -2.992092 -179.935132 -1.627189 -0.179452 6.726915 3.655886 8.719324 -74.874228 4.207895 4.683610 87.085691 3.007029 -14.081598 -7.146204 0.000000 0.000000 0.000000 0.892645 2.060796 8.404153 8.017241 -9.094580 -75.928057 0.641527 0.961949 83.282423 0.906672 6.020296 -5.289075 0.000000 0.000000 0.000000 -0.394479 4.638617 3.590630 0.343865 0.200646 -3.035477 -0.815505 -2.477245 5.220910 -0.001924 -0.010102 0.005055 -1.201119 -1.365612 8.191252 -6.384698 0.187877 6.553425 0.000000 0.000000 0.000000 1.094220 -0.865814 3.398686 -6.006999 -5.858520 -0.420306 -59.455041 -35.016662 2.818697 137.257979 -80.219902 -114.541446 0.000000 0.000000 0.000000 -4.028126 1.011178 2.840931 30.252124 3.106701 2.707415 43.963800 25.572071 -8.785291 178.021791 64.195111 170.362349 0.000000 0.000000 0.000000 
-5.446492 63.762409 10.756243 -179.950828 -3.229686 -179.890695 -1.680444 -0.051807 6.681353 3.682704 8.804576 -74.956272 4.229855 4.733295 87.317425 3.076119 -14.292722 -7.264471 0.000000 0.000000 0.000000 0.812539 2.209108 8.417137 7.851917 -8.758712 -75.984741 0.572916 0.982865 83.579174 0.859189 5.925831 -5.514517 0.000000 0.000000 0.000000 -0.537088 4.808669 3.313380 0.247683 0.182310 -3.193375 -0.771689 -2.479355 5.243621 -0.020626 -0.006904 0.005944 -1.098234 -1.388069 8.258124 -5.967457 0.258688 7.097201 0.000000 0.000000 0.000000 1.162798 -0.880797 3.453233 -6.258691 -6.019683 -0.386839 -59.537598 -34.490652 2.595226 138.321576 -80.391190 -115.842604 0.000000 0.000000 0.000000 -3.945710 0.963540 2.869429 30.556173 2.919221 2.518404 44.073920 24.996013 -9.726678 177.884791 64.099495 170.245061 0.000000 0.000000 0.000000 
-5.419996 63.733459 10.666238 -179.966414 -3.347604 -179.868059 -1.751556 0.113026 6.679568 3.682938 8.911425 -75.024970 4.214177 4.779345 87.455689 3.118825 -14.499634 -7.288091 0.000000 0.000000 0.000000 0.727898 2.381103 8.441442 7.666833 -8.489763 -76.022321 0.492853 0.995538 83.779859 0.820454 5.831553 -5.645936 0.000000 0.000000 0.000000 -0.695088 4.965580 3.131929 0.178231 0.191429 -3.348362 -0.707239 -2.465066 5.276479 -0.018275 0.016748 0.007730 -1.028673 -1.437489 8.290607 -5.617163 0.286010 7.597207 0.000000 0.000000 0.000000 1.193981 -0.901757 3.490667 -6.490398 -6.119934 -0.387286 -59.567610 -33.950657 2.374530 138.636612 -80.609346 -116.382079 0.000000 0.000000 0.000000 -3.877044 0.917468 2.904493 30.806687 2.706654 2.387291 44.139838 24.365689 -10.855098 177.789524 64.129657 170.165489 0.000000 0.000000 0.000000 
-5.430600 63.736435 10.641059 -179.925542 -3.461875 -179.901022 -1.829126 0.106196 6.660861 3.703460 8.973729 -75.044033 4.198655 4.811209 87.529475 3.235984 -14.536847 -7.220908 0.000000 0.000000 0.000000 0.691188 2.414850 8.482299 7.538283 -8.336080 -75.984447 0.421511 0.954400 83.821475 0.870867 5.832348 -5.618725 0.000000 0.000000 0.000000 -0.763205 5.023182 3.071370 0.166605 0.168801 -3.440474 -0.628039 -2.505467 5.285364 -0.046023 0.004169 0.008219 -0.988452 -1.475194 8.327183 -5.303545 0.483625 8.010828 0.000000 0.000000 0.000000 1.220577 -0.929970 3.500710 -6.649745 -6.156703 -0.389685 -59.503488 -33.556702 2.063559 138.137366 -80.902013 -116.039341 0.000000 0.000000 0.000000 -3.844913 0.865510 2.940178 30.873842 2.627068 2.297191 44.007930 23.770126 -12.052666 177.833319 64.220990 170.213368 0.000000 0.000000 0.000000 
